<svg width="182" height="46" viewBox="0 0 182 46" fill="none" xmlns="http://www.w3.org/2000/svg">
<path d="M176.05 1H5.95C3.21619 1 1 2.93477 1 5.32143V40.6786C1 43.0652 3.21619 45 5.95 45H176.05C178.784 45 181 43.0652 181 40.6786V5.32143C181 2.93477 178.784 1 176.05 1Z" stroke="#F1F3F4" stroke-miterlimit="10"/>
<path fill-rule="evenodd" clip-rule="evenodd" d="M69.887 26.5545V28.282H74.284C74.152 29.2577 73.806 29.9808 73.287 30.4724C72.646 31.0808 71.648 31.7475 69.897 31.7475C67.1904 31.7475 65.0734 29.6814 65.0734 27.1141C65.0734 24.5468 67.1904 22.4807 69.897 22.4807C71.353 22.4807 72.422 23.0211 73.205 23.7261L74.498 22.4998C73.398 21.506 71.943 20.7437 69.888 20.7437C66.1824 20.7437 63.0684 23.6008 63.0684 27.1237C63.0684 30.637 66.1824 33.5036 69.888 33.5036C71.892 33.5036 73.398 32.8857 74.58 31.7178C75.79 30.57 76.167 28.9477 76.167 27.645C76.167 27.2394 76.137 26.8635 76.066 26.5545H69.887ZM81.165 25.2804C78.773 25.2804 76.819 27.0079 76.819 29.382C76.819 31.7475 78.773 33.4855 81.165 33.4855C83.557 33.4855 85.511 31.7475 85.511 29.382C85.511 27.0079 83.557 25.2804 81.165 25.2804ZM86.305 29.382C86.305 27.0079 88.26 25.2804 90.652 25.2804C93.044 25.2804 94.998 27.0079 94.998 29.382C94.998 31.7475 93.044 33.4855 90.652 33.4855C88.26 33.4855 86.305 31.7475 86.305 29.382ZM88.209 29.382C88.209 30.8493 89.339 31.8728 90.652 31.8728C91.954 31.8728 93.094 30.8493 93.094 29.382C93.094 27.9061 91.965 26.8922 90.652 26.8922C89.339 26.8922 88.209 27.9051 88.209 29.382ZM78.722 29.382C78.722 30.8493 79.852 31.8728 81.165 31.8728C82.478 31.8728 83.608 30.8493 83.608 29.382C83.608 27.9061 82.478 26.8922 81.165 26.8922C79.852 26.8922 78.722 27.9051 78.722 29.382ZM112.302 25.2804C114.551 25.2804 115.65 26.9792 116.007 27.8956L116.21 28.3595L110.419 30.6283C110.856 31.4481 111.548 31.8718 112.515 31.8718C113.483 31.8718 114.154 31.4194 114.643 30.7336L116.119 31.67C115.313 32.8155 113.959 33.4974 112.515 33.4855C110.052 33.4855 108.22 31.6796 108.22 29.382C108.22 26.94 110.072 25.2804 112.302 25.2804ZM110.103 29.2663C110.053 27.6832 111.396 26.873 112.363 26.873C113.116 26.873 113.757 27.2298 113.971 27.7416L110.103 29.2663ZM107.304 33.2444H105.4V33.2435V21.1779H107.304V33.2444ZM102.276 26.1977H102.215C101.787 25.7157 100.973 25.2814 99.935 25.2814C97.766 25.2814 95.782 27.0863 95.782 29.403C95.782 31.6997 97.766 33.495 99.935 33.495C100.963 33.495 101.787 33.0608 102.215 32.5586H102.275V33.1478C102.275 34.7213 101.39 35.5611 99.965 35.5611C98.805 35.5611 98.082 34.7691 97.787 34.1034L96.127 34.7596C96.607 35.85 97.868 37.1824 99.965 37.1824C102.195 37.1824 104.077 35.937 104.077 32.9068V25.532H102.276V26.1977ZM97.685 29.4021C97.685 30.8311 98.784 31.8737 100.097 31.8737H100.098C101.4 31.8737 102.418 30.8311 102.408 29.403C102.408 27.9644 101.39 26.9027 100.097 26.9027C98.785 26.9027 97.685 27.9549 97.685 29.4021ZM124.923 21.1789H120.373V33.2444H122.277V28.6694H124.933C127.04 28.6694 129.107 27.2212 129.107 24.9237C129.107 22.6261 127.02 21.1789 124.923 21.1789ZM122.267 26.9897H124.964C126.389 26.9897 127.193 25.861 127.193 24.9141C127.173 23.7554 126.176 22.831 124.964 22.848H122.267V26.9897ZM136.71 25.2613C135.336 25.2613 133.911 25.841 133.321 27.1055L135.01 27.7712C135.366 27.1055 136.038 26.8836 136.741 26.8836C137.718 26.8836 138.725 27.4431 138.736 28.437V28.5632C138.124 28.2576 137.442 28.0983 136.751 28.0993C134.929 28.0993 133.086 29.0463 133.086 30.812C133.086 32.4237 134.573 33.4663 136.242 33.4663C137.514 33.4663 138.227 32.9259 138.664 32.2889H138.725V33.2253H140.558V28.6015C140.568 26.4589 138.878 25.2613 136.71 25.2613ZM134.99 30.8503C134.99 31.5743 135.855 31.8737 136.476 31.8737C137.575 31.8737 138.593 31.0817 138.736 29.9722C138.237 29.7407 137.84 29.5666 137.005 29.5666C136.069 29.5666 134.99 29.9234 134.99 30.8503ZM147.245 25.5224L145.067 30.7546H145.006L142.746 25.5224H140.7L144.09 32.8389L142.156 36.9022H144.14L149.362 25.5224H147.245ZM132.048 33.2444H130.145V33.2435V21.1779H132.048V33.2444Z" fill="#F7F7F7"/>
<path fill-rule="evenodd" clip-rule="evenodd" d="M32.7602 11.5433L44.3682 22.8111L47.7672 19.5188L33.6162 11.7202C33.2572 11.55 32.9902 11.4849 32.7602 11.5433ZM32.0732 12.2281L43.6812 23.4835H43.6802L32.0842 34.7514C32.0242 34.6452 32.0002 34.4022 31.9992 34.1727C31.9972 29.2164 31.9982 25.3875 31.9991 21.3106L31.9992 21.0521L32.0012 12.7112C32.0012 12.5094 32.0132 12.3334 32.0732 12.2281ZM32.7122 35.4238L32.7131 35.4229C33.0755 35.4553 33.2464 35.4208 33.5202 35.3042L47.7672 27.4579L44.3802 24.1675L32.7131 35.4229L32.7122 35.4228V35.4238ZM45.0552 23.4711L48.6592 19.9798L53.3842 22.6227C53.7612 22.8494 53.9632 23.0235 53.9992 23.4721C53.9752 23.8843 53.7722 24.1053 53.3852 24.3454L48.6352 26.9758L45.0552 23.4711Z" fill="white"/>
<path d="M65.5232 16.3044C67.2959 16.3044 68.3215 15.2528 68.3215 13.5137C68.3215 11.7827 67.2959 10.7392 65.5828 10.7392H63.6396V16.3044H65.5232ZM64.5175 15.5707V11.4729H65.5289C66.8016 11.4729 67.4578 12.2012 67.4578 13.5137C67.4578 14.8316 66.8016 15.5707 65.4749 15.5707H64.5175Z" fill="white"/>
<path d="M71.2909 10.7392H70.4131V16.3044H71.2909V10.7392Z" fill="white"/>
<path d="M76.7426 12.2012H77.5892C77.5637 11.3099 76.7398 10.6631 75.558 10.6631C74.3904 10.6631 73.4955 11.3017 73.4955 12.261C73.4955 13.0354 74.075 13.4892 75.0097 13.7311L75.6972 13.9104C76.3193 14.068 76.7994 14.2637 76.7994 14.7582C76.7994 15.3017 76.2568 15.6604 75.5097 15.6604C74.8335 15.6604 74.271 15.3724 74.2199 14.7664H73.3392C73.396 15.7746 74.2114 16.3968 75.5154 16.3968C76.8818 16.3968 77.6688 15.7093 77.6688 14.7664C77.6688 13.7637 76.7341 13.3751 75.9955 13.2012L75.4273 13.0599C74.9727 12.9485 74.3676 12.7447 74.3705 12.2121C74.3705 11.7392 74.8222 11.3887 75.5381 11.3887C76.2057 11.3887 76.6801 11.6876 76.7426 12.2012Z" fill="white"/>
<path d="M79.7178 16.3044H80.5956V14.3479H81.7888C83.1382 14.3479 83.8058 13.568 83.8058 12.5409C83.8058 11.5164 83.1439 10.7392 81.7916 10.7392H79.7178V16.3044ZM80.5956 13.636V11.4593H81.6979C82.5672 11.4593 82.9223 11.9104 82.9223 12.5409C82.9223 13.1713 82.5672 13.636 81.7092 13.636H80.5956Z" fill="white"/>
<path d="M90.8889 13.5218C90.8889 11.7419 89.7753 10.6631 88.2696 10.6631C86.7583 10.6631 85.6475 11.7419 85.6475 13.5218C85.6475 15.299 86.7583 16.3805 88.2696 16.3805C89.7753 16.3805 90.8889 15.3017 90.8889 13.5218ZM90.0196 13.5218C90.0196 14.8778 89.2696 15.6142 88.2696 15.6142C87.2668 15.6142 86.5196 14.8778 86.5196 13.5218C86.5196 12.1659 87.2668 11.4294 88.2696 11.4294C89.2696 11.4294 90.0196 12.1659 90.0196 13.5218Z" fill="white"/>
<path d="M97.6794 10.7392H96.8101V14.8262H96.7561L93.7959 10.7392H92.9834V16.3044H93.8612V12.2229H93.9152L96.8726 16.3044H97.6794V10.7392Z" fill="white"/>
<path d="M100.838 10.7392H99.9599V16.3044H100.838V10.7392ZM100.051 10.1822H100.73L101.611 8.92944H100.716L100.051 10.1822Z" fill="white"/>
<path d="M103.625 10.7392H102.676L104.77 16.3044H105.784L107.878 10.7392H106.929L105.309 15.2718H105.244L103.625 10.7392Z" fill="white"/>
<path d="M109.718 16.3044H113.4V15.5816H110.596V13.8778H113.175V13.1577H110.596V11.4621H113.365V10.7392H109.718V16.3044Z" fill="white"/>
<path d="M115.538 16.3044H119.052V15.5816H116.416V10.7392H115.538V16.3044Z" fill="white"/>
<path d="M128.867 10.7392H127.998V14.8262H127.944L124.983 10.7392H124.171V16.3044H125.049V12.2229H125.103L128.06 16.3044H128.867V10.7392Z" fill="white"/>
<path d="M136.201 13.5218C136.201 11.7419 135.088 10.6631 133.582 10.6631C132.071 10.6631 130.96 11.7419 130.96 13.5218C130.96 15.299 132.071 16.3805 133.582 16.3805C135.088 16.3805 136.201 15.3017 136.201 13.5218ZM135.332 13.5218C135.332 14.8778 134.582 15.6142 133.582 15.6142C132.579 15.6142 131.832 14.8778 131.832 13.5218C131.832 12.1659 132.579 11.4294 133.582 11.4294C134.582 11.4294 135.332 12.1659 135.332 13.5218Z" fill="white"/>
</svg>
