<?xml version="1.0" encoding="UTF-8"?>
<!DOCTYPE svg PUBLIC "-//W3C//DTD SVG 1.1//EN" "http://www.w3.org/Graphics/SVG/1.1/DTD/svg11.dtd">
<svg xmlns="http://www.w3.org/2000/svg" version="1.1" width="8158px" height="2755px" style="shape-rendering:geometricPrecision; text-rendering:geometricPrecision; image-rendering:optimizeQuality; fill-rule:evenodd; clip-rule:evenodd" xmlns:xlink="http://www.w3.org/1999/xlink">
<g><path style="opacity:0.996" fill="#0f91ff" d="M -0.5,1112.5 C -0.5,1099.5 -0.5,1086.5 -0.5,1073.5C 4.13801,1035.56 18.638,1001.89 43,972.5C 351.833,663 660.667,353.5 969.5,44C 1025.47,-0.551089 1087.47,-11.2178 1155.5,12C 1219.96,38.7956 1258.12,86.629 1270,155.5C 1276.8,213.096 1261.8,264.096 1225,308.5C 1051,483.167 877,657.833 703,832.5C 570.833,964.667 438.667,1096.83 306.5,1229C 247.439,1276.29 182.106,1287.29 110.5,1262C 46.5822,1232.24 9.58222,1182.4 -0.5,1112.5 Z"/></g>
<g><path style="opacity:0.997" fill="#0f91ff" d="M 5582.5,499.5 C 5657.05,498.551 5726.05,517.384 5789.5,556C 5790.08,556.893 5790.41,557.893 5790.5,559C 5776.27,614.531 5761.93,670.031 5747.5,725.5C 5746.64,726.583 5745.64,726.749 5744.5,726C 5715.52,712.116 5685.02,703.949 5653,701.5C 5619.8,700.387 5598.8,715.721 5590,747.5C 5588.68,753.782 5587.68,760.115 5587,766.5C 5586.5,806.832 5586.33,847.165 5586.5,887.5C 5633.17,887.5 5679.83,887.5 5726.5,887.5C 5726.5,951.5 5726.5,1015.5 5726.5,1079.5C 5679.83,1079.5 5633.17,1079.5 5586.5,1079.5C 5586.5,1261.17 5586.5,1442.83 5586.5,1624.5C 5507.5,1624.5 5428.5,1624.5 5349.5,1624.5C 5349.5,1442.83 5349.5,1261.17 5349.5,1079.5C 5325.5,1079.5 5301.5,1079.5 5277.5,1079.5C 5277.5,1015.5 5277.5,951.5 5277.5,887.5C 5301.5,887.5 5325.5,887.5 5349.5,887.5C 5349.33,840.832 5349.5,794.165 5350,747.5C 5351.47,702.462 5361.47,659.462 5380,618.5C 5414.95,551.563 5470.12,513.063 5545.5,503C 5557.95,501.465 5570.29,500.298 5582.5,499.5 Z"/></g>
<g><path style="opacity:0.992" fill="#0f91ff" d="M 7641.5,523.5 C 7682.57,523.351 7718.57,536.518 7749.5,563C 7785.31,599.124 7798.15,642.291 7788,692.5C 7776.29,738.407 7748.46,770.241 7704.5,788C 7655.34,805.708 7607.67,802.375 7561.5,778C 7509.49,744.127 7488.33,696.294 7498,634.5C 7508.97,586.736 7537.13,553.569 7582.5,535C 7601.68,527.918 7621.35,524.085 7641.5,523.5 Z"/></g>
<g><path style="opacity:0.998" fill="#0f91ff" d="M 2535.5,554.5 C 2620.4,554.168 2705.24,554.502 2790,555.5C 2887.59,741.676 2984.92,928.009 3082,1114.5C 3083.27,1116.72 3084.77,1118.72 3086.5,1120.5C 3089.24,1116.7 3091.74,1112.7 3094,1108.5C 3189.83,924.167 3285.67,739.833 3381.5,555.5C 3466.16,554.5 3550.83,554.167 3635.5,554.5C 3635.5,911.167 3635.5,1267.83 3635.5,1624.5C 3552.17,1624.5 3468.83,1624.5 3385.5,1624.5C 3385.5,1427.83 3385.5,1231.17 3385.5,1034.5C 3384.32,1034.28 3383.32,1034.61 3382.5,1035.5C 3310.67,1166.5 3238.83,1297.5 3167,1428.5C 3112.9,1429.83 3058.73,1429.83 3004.5,1428.5C 2932.42,1297.34 2860.09,1166.34 2787.5,1035.5C 2786.5,1231.83 2786.17,1428.17 2786.5,1624.5C 2702.83,1624.5 2619.17,1624.5 2535.5,1624.5C 2535.5,1267.83 2535.5,911.167 2535.5,554.5 Z"/></g>
<g><path style="opacity:0.997" fill="#0f91ff" d="M 3821.5,554.5 C 4053.83,554.5 4286.17,554.5 4518.5,554.5C 4518.5,629.5 4518.5,704.5 4518.5,779.5C 4368.5,779.5 4218.5,779.5 4068.5,779.5C 4068.5,847.5 4068.5,915.5 4068.5,983.5C 4186.83,983.5 4305.17,983.5 4423.5,983.5C 4423.5,1057.83 4423.5,1132.17 4423.5,1206.5C 4305.17,1206.5 4186.83,1206.5 4068.5,1206.5C 4068.5,1270.83 4068.5,1335.17 4068.5,1399.5C 4218.5,1399.5 4368.5,1399.5 4518.5,1399.5C 4518.5,1474.5 4518.5,1549.5 4518.5,1624.5C 4286.17,1624.5 4053.83,1624.5 3821.5,1624.5C 3821.5,1267.83 3821.5,911.167 3821.5,554.5 Z"/></g>
<g><path style="opacity:0.996" fill="#0f91ff" d="M 4703.5,554.5 C 4788.5,554.5 4873.5,554.5 4958.5,554.5C 4958.5,911.167 4958.5,1267.83 4958.5,1624.5C 4873.5,1624.5 4788.5,1624.5 4703.5,1624.5C 4703.5,1267.83 4703.5,911.167 4703.5,554.5 Z"/></g>
<g><path style="opacity:0.996" fill="#0f91ff" d="M 8157.5,554.5 C 8157.5,911.167 8157.5,1267.83 8157.5,1624.5C 8079.5,1624.5 8001.5,1624.5 7923.5,1624.5C 7923.5,1267.83 7923.5,911.167 7923.5,554.5C 8001.5,554.5 8079.5,554.5 8157.5,554.5 Z"/></g>
<g><path style="opacity:0.99" fill="#0f91ff" d="M 6336.5,560.5 C 6382.83,560.333 6429.17,560.5 6475.5,561C 6413.88,636.957 6351.88,712.624 6289.5,788C 6215.5,788.833 6141.5,788.667 6067.5,787.5C 6122.92,711.91 6178.92,636.743 6235.5,562C 6269.34,561.832 6303,561.332 6336.5,560.5 Z"/></g>
<g><path style="opacity:0.993" fill="#fec800" d="M 1400.5,578.5 C 1469.48,576.077 1524.31,602.41 1565,657.5C 1598.77,709.582 1606.11,765.248 1587,824.5C 1562.68,887.818 1517.51,927.318 1451.5,943C 1379.92,955.143 1320.08,934.309 1272,880.5C 1226.79,820.858 1218.13,756.192 1246,686.5C 1277.8,622.503 1329.3,586.503 1400.5,578.5 Z"/></g>
<g><path style="opacity:0.996" fill="#0f91ff" d="M 6116.5,872.5 C 6198.27,866.14 6268.93,890.64 6328.5,946C 6334.33,952.5 6340.17,959 6346,965.5C 6346.5,939.502 6346.67,913.502 6346.5,887.5C 6425.5,887.5 6504.5,887.5 6583.5,887.5C 6583.5,1133.17 6583.5,1378.83 6583.5,1624.5C 6509.17,1624.5 6434.83,1624.5 6360.5,1624.5C 6360.5,1598.17 6360.5,1571.83 6360.5,1545.5C 6348.86,1556.63 6337.2,1568.13 6325.5,1580C 6275.37,1620.38 6217.87,1639.88 6153,1638.5C 6065.1,1638.77 5988.27,1610.27 5922.5,1553C 5868.57,1500.99 5833.4,1438.16 5817,1364.5C 5796.86,1271.4 5802.86,1180.07 5835,1090.5C 5864.45,1013.38 5914.62,953.878 5985.5,912C 6026.53,889.666 6070.19,876.499 6116.5,872.5 Z M 6189.5,1082.5 C 6263.65,1081.65 6315.15,1115.32 6344,1183.5C 6361.97,1232.5 6361.97,1281.5 6344,1330.5C 6317.45,1393.54 6269.95,1427.21 6201.5,1431.5C 6131.93,1428.48 6084.1,1394.82 6058,1330.5C 6038.25,1272.25 6041.91,1215.58 6069,1160.5C 6096.16,1114.5 6136.32,1088.5 6189.5,1082.5 Z"/></g>
<g><path style="opacity:0.994" fill="#0f91ff" d="M 7057.5,872.5 C 7144.31,867.372 7225.65,885.872 7301.5,928C 7342.39,951.892 7377.39,982.558 7406.5,1020C 7354.34,1065.32 7301.67,1110.16 7248.5,1154.5C 7197.15,1096.66 7133.15,1074.49 7056.5,1088C 6992.56,1103.6 6953.06,1143.44 6938,1207.5C 6929.63,1247.13 6931.96,1286.13 6945,1324.5C 6969.55,1385.03 7014.39,1419.2 7079.5,1427C 7146.63,1432.41 7202.97,1410.58 7248.5,1361.5C 7302.49,1408.16 7356.15,1455.16 7409.5,1502.5C 7373.67,1544.6 7330.34,1576.77 7279.5,1599C 7193.2,1635.66 7103.54,1647.66 7010.5,1635C 6905.84,1618.96 6822.68,1568.46 6761,1483.5C 6715.73,1414.79 6693.57,1339.12 6694.5,1256.5C 6693.6,1164.04 6721.1,1081.37 6777,1008.5C 6835.96,939.326 6910.46,896.493 7000.5,880C 7019.54,876.647 7038.54,874.147 7057.5,872.5 Z"/></g>
<g><path style="opacity:0.996" fill="#0f91ff" d="M 7525.5,887.5 C 7603.5,887.5 7681.5,887.5 7759.5,887.5C 7759.5,1133.17 7759.5,1378.83 7759.5,1624.5C 7681.5,1624.5 7603.5,1624.5 7525.5,1624.5C 7525.5,1378.83 7525.5,1133.17 7525.5,887.5 Z"/></g>
<g><path style="opacity:0.996" fill="#0f91ff" d="M 1976.5,903.5 C 2052.87,901.092 2111.04,932.092 2151,996.5C 2181.77,1058.63 2180.77,1120.3 2148,1181.5C 2143.16,1189.84 2137.83,1197.84 2132,1205.5C 2113.33,1224.83 2094.67,1244.17 2076,1263.5C 1784.78,1554.72 1493.61,1845.89 1202.5,2137C 1146.63,2178.87 1085.3,2189.2 1018.5,2168C 952.099,2140.25 913.266,2090.75 902,2019.5C 896.296,1968.31 908.962,1922.31 940,1881.5C 965.667,1855.17 991.333,1828.83 1017,1802.5C 1301.86,1517.97 1586.36,1233.14 1870.5,948C 1901.2,922.154 1936.54,907.321 1976.5,903.5 Z"/></g>
<g><path style="opacity:0.995" fill="#0f91ff" d="M 1028.5,950.5 C 1101.86,947.925 1158.69,976.925 1199,1037.5C 1225.84,1084.92 1231.84,1134.92 1217,1187.5C 1208.41,1215.7 1194.41,1240.7 1175,1262.5C 1079.75,1358.08 984.252,1453.25 888.5,1548C 833.261,1589.38 772.594,1599.71 706.5,1579C 637.058,1550.68 597.558,1499.18 588,1424.5C 583.595,1371.41 598.595,1324.74 633,1284.5C 728.194,1189.64 823.027,1094.47 917.5,999C 949.21,970.813 986.21,954.647 1028.5,950.5 Z"/></g>
<g><path style="opacity:0.993" fill="#0f91ff" d="M 5274.5,1999.5 C 5412.03,1999.36 5523.53,2052.69 5609,2159.5C 5693.76,2273.32 5717.43,2398.99 5680,2536.5C 5662.77,2598.64 5633.77,2654.31 5593,2703.5C 5582.01,2717.17 5569.17,2728.67 5554.5,2738C 5519.17,2755.1 5485.51,2752.43 5453.5,2730C 5422.04,2701.61 5412.54,2667.11 5425,2626.5C 5427.86,2618.44 5431.53,2610.77 5436,2603.5C 5451.16,2584.67 5465.16,2565 5478,2544.5C 5513,2482.52 5521.33,2417.19 5503,2348.5C 5477.23,2271.07 5425.73,2219.23 5348.5,2193C 5256.25,2171.75 5179.75,2197.25 5119,2269.5C 5068.28,2336.15 5054.94,2409.82 5079,2490.5C 5086.02,2512.24 5095.36,2532.91 5107,2552.5C 5119.61,2570.78 5132.61,2588.78 5146,2606.5C 5165.98,2642 5165.31,2677 5144,2711.5C 5116.65,2745.72 5081.82,2756.55 5039.5,2744C 5023.35,2737.85 5009.52,2728.35 4998,2715.5C 4937.04,2645.88 4900.04,2564.88 4887,2472.5C 4871.08,2330.25 4914.24,2209.42 5016.5,2110C 5089.29,2042.78 5175.29,2005.95 5274.5,1999.5 Z"/></g>
<g><path style="opacity:0.993" fill="#0f91ff" d="M 8157.5,2390.5 C 8157.5,2406.5 8157.5,2422.5 8157.5,2438.5C 8150.7,2531.74 8119.54,2615.74 8064,2690.5C 8053.27,2704.23 8041.44,2717.07 8028.5,2729C 7989.18,2756.63 7950.18,2756.3 7911.5,2728C 7879.16,2696.32 7871.66,2659.49 7889,2617.5C 7897.69,2600.77 7908.36,2585.44 7921,2571.5C 7966.66,2508.21 7981.99,2438.21 7967,2361.5C 7944.75,2280.26 7894.25,2224.76 7815.5,2195C 7719.47,2170.35 7639.97,2196.18 7577,2272.5C 7527.95,2339.45 7515.62,2412.78 7540,2492.5C 7552.83,2531.52 7572.83,2566.18 7600,2596.5C 7620.68,2624.88 7626.01,2655.88 7616,2689.5C 7597.08,2733.05 7563.92,2752.55 7516.5,2748C 7499.63,2745.38 7484.63,2738.72 7471.5,2728C 7430.09,2686.88 7398.59,2639.04 7377,2584.5C 7345.31,2506 7336.31,2425 7350,2341.5C 7371.91,2232.45 7427.08,2144.62 7515.5,2078C 7634.37,1994.2 7762.03,1977.86 7898.5,2029C 7984.33,2066.17 8051.5,2124.67 8100,2204.5C 8133.6,2262.12 8152.76,2324.12 8157.5,2390.5 Z"/></g>
<g><path style="opacity:0.993" fill="#0f91ff" d="M 6126.5,2000.5 C 6243.48,1993.97 6342.98,2031.97 6425,2114.5C 6446.49,2141.74 6452.15,2172.08 6442,2205.5C 6430.94,2234.89 6410.44,2254.39 6380.5,2264C 6349.26,2270.77 6320.92,2264.44 6295.5,2245C 6276.27,2227.05 6254.94,2212.05 6231.5,2200C 6199.65,2187.09 6166.65,2182.42 6132.5,2186C 6059.98,2195.23 6007.48,2232.4 5975,2297.5C 5955.31,2344.73 5953.31,2392.73 5969,2441.5C 5992.07,2501.57 6034.23,2541.4 6095.5,2561C 6137.04,2572.69 6178.38,2572.03 6219.5,2559C 6239.57,2551.14 6257.91,2540.47 6274.5,2527C 6292.44,2508.69 6313.77,2496.03 6338.5,2489C 6385.64,2482.65 6419.48,2500.82 6440,2543.5C 6452.56,2577.81 6447.89,2609.47 6426,2638.5C 6359.33,2707.54 6277.83,2745.71 6181.5,2753C 6059.74,2760.1 5956.57,2720.27 5872,2633.5C 5796.98,2548.09 5764.98,2448.42 5776,2334.5C 5789.49,2223.97 5840.65,2135.8 5929.5,2070C 5988.79,2028.85 6054.45,2005.68 6126.5,2000.5 Z"/></g>
<g><path style="opacity:0.994" fill="#0f91ff" d="M 6867.5,2000.5 C 6990.41,1994.41 7093.91,2035.74 7178,2124.5C 7251.67,2210.87 7282.34,2310.87 7270,2424.5C 7252.81,2546.49 7191.98,2639.33 7087.5,2703C 6990.34,2756.13 6888.34,2767.8 6781.5,2738C 6682.6,2706.83 6608.1,2646 6558,2555.5C 6510.88,2460.95 6502.21,2362.95 6532,2261.5C 6576.45,2132.05 6664.62,2048.89 6796.5,2012C 6820.03,2006.43 6843.7,2002.59 6867.5,2000.5 Z M 6891.5,2184.5 C 6967.99,2186.3 7025.82,2219.64 7065,2284.5C 7093.5,2340.42 7095.84,2397.42 7072,2455.5C 7042.98,2515.95 6995.48,2552.78 6929.5,2566C 6857.24,2577.03 6796.08,2556.19 6746,2503.5C 6700.74,2447.53 6688.41,2384.87 6709,2315.5C 6733.38,2249.12 6779.88,2207.29 6848.5,2190C 6862.85,2187.08 6877.18,2185.25 6891.5,2184.5 Z"/></g>
<g><path style="opacity:0.982" fill="#0f91ff" d="M 3667.5,2173.5 C 3746.73,2174.56 3798.23,2212.89 3822,2288.5C 3836.22,2341.59 3835.89,2394.59 3821,2447.5C 3791.23,2532.31 3731.73,2568.48 3642.5,2556C 3616.34,2549.02 3595.51,2534.52 3580,2512.5C 3576.67,2507.17 3573.33,2501.83 3570,2496.5C 3568.89,2494.96 3567.39,2494.3 3565.5,2494.5C 3565.5,2560.17 3565.5,2625.83 3565.5,2691.5C 3540.83,2691.5 3516.17,2691.5 3491.5,2691.5C 3491.5,2520.5 3491.5,2349.5 3491.5,2178.5C 3515.5,2178.5 3539.5,2178.5 3563.5,2178.5C 3563.5,2198.83 3563.5,2219.17 3563.5,2239.5C 3565.47,2239.74 3567.3,2239.41 3569,2238.5C 3589.37,2197.9 3622.2,2176.23 3667.5,2173.5 Z M 3649.5,2236.5 C 3702.76,2235.06 3736.6,2260.06 3751,2311.5C 3761.5,2351.12 3760.5,2390.45 3748,2429.5C 3727.89,2483.14 3689.72,2504.31 3633.5,2493C 3608.18,2484.42 3590.01,2467.92 3579,2443.5C 3563.76,2405.71 3559.76,2366.71 3567,2326.5C 3570.82,2301.87 3580.82,2280.2 3597,2261.5C 3611.79,2247.36 3629.29,2239.02 3649.5,2236.5 Z"/></g>
<g><path style="opacity:0.983" fill="#0f91ff" d="M 4060.5,2173.5 C 4152.24,2172.93 4210.74,2216.59 4236,2304.5C 4246,2346.17 4246,2387.83 4236,2429.5C 4222.82,2483.33 4191.32,2522.17 4141.5,2546C 4098.41,2562.05 4054.75,2563.72 4010.5,2551C 3963.73,2534.56 3930.9,2503.4 3912,2457.5C 3893.16,2405.7 3890.49,2353.03 3904,2299.5C 3927.56,2221.75 3979.73,2179.75 4060.5,2173.5 Z M 4058.5,2235.5 C 4105.16,2232.68 4137.66,2252.68 4156,2295.5C 4172.94,2342.18 4173.27,2388.85 4157,2435.5C 4133.62,2488.27 4093.79,2507.44 4037.5,2493C 4013.21,2483.71 3995.71,2467.21 3985,2443.5C 3966.8,2398.23 3964.8,2352.23 3979,2305.5C 3986.34,2282.18 3999.84,2263.34 4019.5,2249C 4031.6,2241.6 4044.6,2237.1 4058.5,2235.5 Z"/></g>
<g><path style="opacity:0.978" fill="#0f91ff" d="M 4476.5,2173.5 C 4491.85,2173.31 4507.18,2173.64 4522.5,2174.5C 4522.83,2198.18 4522.5,2221.84 4521.5,2245.5C 4492.14,2237.04 4463.8,2239.54 4436.5,2253C 4414.28,2266.25 4401.11,2285.75 4397,2311.5C 4396.5,2391.83 4396.33,2472.17 4396.5,2552.5C 4371.83,2552.5 4347.17,2552.5 4322.5,2552.5C 4322.5,2427.83 4322.5,2303.17 4322.5,2178.5C 4346.17,2178.5 4369.83,2178.5 4393.5,2178.5C 4393.5,2198.17 4393.5,2217.83 4393.5,2237.5C 4394.82,2237.67 4395.99,2237.34 4397,2236.5C 4411.55,2200.45 4438.05,2179.45 4476.5,2173.5 Z"/></g>
<g><path style="opacity:0.987" fill="#0f91ff" d="M 6141.5,2287.5 C 6190.25,2285.13 6222.75,2306.79 6239,2352.5C 6248.97,2399.05 6233.47,2434.22 6192.5,2458C 6151.77,2474.65 6115.94,2467.49 6085,2436.5C 6061.8,2406.96 6057.14,2374.63 6071,2339.5C 6085.66,2310.1 6109.16,2292.76 6141.5,2287.5 Z"/></g>
</svg>
