<svg xmlns="http://www.w3.org/2000/svg" viewBox="0 0 3158.09 473.5"><defs><style>.cls-1{fill:#fff;}</style></defs><title>Ativo 7</title><g id="Camada_2" data-name="Camada 2"><g id="Camada_1-2" data-name="Camada 1"><path class="cls-1" d="M1165.65,234.46h-15.72v-41.6h15.72V168c0-40,20.64-59.28,52.74-59.28,21.29,0,37.67,8.51,43.24,12.44l-9.5,36.69c-6.88-3.28-15.4-5.57-20.31-5.57-8.85,0-14.74,4.26-14.74,17.36v23.26h30.46v41.6h-30.46V353h-51.43Z"/><path class="cls-1" d="M792.09,120.47V353H737.71V224.63h-.65l-47.17,85.82h-35L607.67,225H607V353H552.64V120.47h55L672.2,243.63h.66l64.2-123.16Z"/><path class="cls-1" d="M832.71,120.47H984.37v48.8H886.43v44.55h77.31V262H886.43v42.26h97.94V353H832.71Z"/><path class="cls-1" d="M1025,120.47h55.36V353H1025Z"/><path class="cls-1" d="M1434.36,192.86V353h-48.48V335.68h-.65c-10.49,13.43-25.55,20.3-44.55,20.3-44.22,0-75.67-33.41-75.67-82.87,0-49.14,31.77-83.53,73.38-83.53a56.58,56.58,0,0,1,44.22,20.31h.32v-17Zm-49.13,80.25c0-22-14.74-38-33.74-38-19.66,0-34.4,15.4-34.4,38s14.09,38,34.07,38C1369.83,311.11,1385.23,296,1385.23,273.11Zm-15.07-101.87H1322l36.68-49.14,52.09-.32Z"/><path class="cls-1" d="M1458.68,273.11c0-49.46,35.38-83.53,85.82-83.53,26.2,0,53.07,11.14,69.12,32.1l-34.4,29.15c-7.53-9.17-18.34-15.39-33.08-15.39-21.62,0-35.71,15.07-35.71,37,0,22.61,14.74,38,36.36,38A42.68,42.68,0,0,0,1579.22,296l35,30.46c-13.76,16.38-38.65,29.81-72.39,29.81C1494.38,356.31,1458.68,322.57,1458.68,273.11Z"/><path class="cls-1" d="M1633.21,143.72c0-17.69,14.42-29.81,32.11-29.81s32.1,12.12,32.1,29.81-14.42,29.81-32.1,29.81S1633.21,161.41,1633.21,143.72Zm6.56,49.14h50.77V353h-50.77Z"/><path class="cls-1" d="M1726.55,120.46h50.78V353h-50.78Z"/><path class="cls-1" d="M209.25,11.69A39.91,39.91,0,0,1,266.94,13c14.56,15.91,13.11,40.78-2.14,56L69,264.8c-15.25,15.25-40.12,16.7-56,2.14a39.91,39.91,0,0,1-1.3-57.69Z"/><path class="cls-1" d="M405.66,208.1a39.91,39.91,0,0,1,57.69,1.31c14.56,15.9,13.11,40.77-2.13,56L265.43,461.22c-15.25,15.24-40.12,16.69-56,2.13a39.91,39.91,0,0,1-1.31-57.69Z"/><path class="cls-1" d="M199,218.33a39.91,39.91,0,0,1,57.69,1.3c14.56,15.9,13.11,40.78-2.13,56l-57.42,57.42c-15.24,15.25-40.12,16.69-56,2.13a39.91,39.91,0,0,1-1.31-57.69Z"/><path class="cls-1" d="M1165.65,234.46h-15.72v-41.6h15.72V168c0-40,20.64-59.28,52.74-59.28,21.29,0,37.67,8.51,43.24,12.44l-9.5,36.69c-6.88-3.28-15.4-5.57-20.31-5.57-8.85,0-14.74,4.26-14.74,17.36v23.26h30.46v41.6h-30.46V353h-51.43Z"/><path class="cls-1" d="M792.09,120.47V353H737.71V224.63h-.65l-47.17,85.82h-35L607.67,225H607V353H552.64V120.47h55L672.2,243.63h.66l64.2-123.16Z"/><circle class="cls-1" cx="308.1" cy="165.69" r="39.91"/><path class="cls-1" d="M2711.12,109.18A127.67,127.67,0,1,0,2838.8,236.85,127.81,127.81,0,0,0,2711.12,109.18Zm0,195.1a67.44,67.44,0,1,1,67.44-67.43A67.51,67.51,0,0,1,2711.12,304.28Z"/><path class="cls-1" d="M3013.64,109.18c-79.66,0-144.46,64.8-144.46,144.45a143.51,143.51,0,0,0,42.26,102.05,30.12,30.12,0,0,0,42.63-42.56,84.21,84.21,0,1,1,119.14,0,30.12,30.12,0,0,0,42.63,42.56,143.5,143.5,0,0,0,42.25-102.05C3158.09,174,3093.29,109.18,3013.64,109.18Z"/><path class="cls-1" d="M2157.49,109.18c-79.65,0-144.46,64.8-144.46,144.45a143.51,143.51,0,0,0,42.26,102.05,30.12,30.12,0,0,0,42.63-42.56,84.22,84.22,0,1,1,119.14,0,30.12,30.12,0,1,0,42.63,42.56A143.51,143.51,0,0,0,2302,253.63C2302,174,2237.14,109.18,2157.49,109.18Z"/><path class="cls-1" d="M2550.5,187.23a30.12,30.12,0,0,0-.92-42.58,127.06,127.06,0,0,0-88.29-35.49c-70.4,0-127.68,57.28-127.68,127.67a127.65,127.65,0,0,0,216,92.19,30.12,30.12,0,1,0-41.67-43.51,67.43,67.43,0,1,1,0-97.36A30.12,30.12,0,0,0,2550.5,187.23Z"/><circle class="cls-1" cx="2461.28" cy="236.84" r="30.1"/></g></g></svg>